%FSTAX23Y23*%
%MOIN*%
%SFA1B1*%

%IPPOS*%
%ADD62C,0.027559*%
%ADD63C,0.027559*%
%ADD64C,0.043307*%
%ADD65C,0.031496*%
%ADD66C,0.035433*%
%ADD67C,0.033465*%
%ADD68C,0.040157*%
%ADD69C,0.033465*%
%ADD70C,0.043307*%
%ADD71C,0.031496*%
%ADD72C,0.029527*%
%ADD73C,0.015748*%
%ADD74C,0.118110*%
%LNlamp_pth_drill-1*%
%LPD*%
G54D62*
X02647Y01076D03*
Y00596D03*
X01732Y0232D03*
Y02128D03*
X01299Y00587D03*
Y01066D03*
X01742Y00587D03*
Y01066D03*
X02204Y00596D03*
Y01076D03*
G54D63*
X03238Y01289D03*
X03188D03*
X0135Y01275D03*
X014D03*
X013D03*
X03138Y01289D03*
X01741Y01279D03*
X01791D03*
X01841D03*
X02646D03*
X02696D03*
X02746D03*
X02203D03*
X02253D03*
X02303D03*
G54D64*
X03366Y02319D03*
Y02419D03*
Y02619D03*
Y02819D03*
Y02919D03*
Y02719D03*
Y02519D03*
Y01891D03*
Y01991D03*
Y01791D03*
Y01691D03*
X02519Y01965D03*
Y02065D03*
Y02165D03*
Y02365D03*
Y02465D03*
Y02665D03*
Y02865D03*
Y03065D03*
Y02965D03*
Y02765D03*
Y02565D03*
Y02265D03*
Y01865D03*
Y01765D03*
X01456Y01957D03*
Y02057D03*
Y02157D03*
Y02357D03*
Y02457D03*
Y02657D03*
Y02857D03*
Y03057D03*
Y02957D03*
Y02757D03*
Y02557D03*
Y02257D03*
Y01857D03*
Y01757D03*
G54D65*
X01782Y01889D03*
X01682D03*
X01782Y02559D03*
X01682D03*
G54D66*
X01963Y03065D03*
Y02965D03*
Y02865D03*
Y02765D03*
Y02665D03*
Y02565D03*
Y02465D03*
Y02365D03*
Y02265D03*
Y02165D03*
Y02065D03*
Y01965D03*
Y01865D03*
Y01765D03*
X02263Y03065D03*
Y02965D03*
Y02865D03*
Y02765D03*
Y02665D03*
Y02565D03*
Y02465D03*
Y02365D03*
Y02265D03*
Y02165D03*
Y02065D03*
Y01965D03*
Y01865D03*
Y01765D03*
G54D67*
X01023Y02976D03*
X00669D03*
G54D68*
X00492Y02974D03*
Y02874D03*
Y0258D03*
Y0248D03*
Y0238D03*
Y02109D03*
Y02009D03*
Y01909D03*
Y01615D03*
Y01515D03*
Y01415D03*
Y00973D03*
Y01073D03*
Y00699D03*
Y00599D03*
G54D69*
X03188Y01072D03*
Y00718D03*
X03356Y01072D03*
Y00718D03*
X01476Y00708D03*
Y01062D03*
X01929Y00708D03*
Y01062D03*
X02844Y00718D03*
Y01072D03*
X02391Y00708D03*
Y01062D03*
G54D70*
X01733Y03425D03*
X01633D03*
X01433D03*
X01533D03*
X02619D03*
X02519D03*
X02319D03*
X02419D03*
G54D71*
X00767Y0061D03*
Y00688D03*
G54D72*
X01003Y00698D03*
Y006D03*
G54D73*
X0246Y01555D03*
Y01624D03*
X02066Y03188D03*
X02972Y01043D03*
X02834Y01732D03*
X02755D03*
G54D74*
X00196Y0374D03*
Y00196D03*
X0374D03*
Y0374D03*
M02*