%FSTAX23Y23*%
%MOIN*%
%SFA1B1*%

%IPPOS*%
%ADD10C,0.019685*%
%ADD11R,0.047244X0.047244*%
%ADD12C,0.047244*%
%ADD13C,0.035433*%
%ADD14C,0.062992*%
%ADD15R,0.062992X0.062992*%
%ADD16C,0.051181*%
%ADD17R,0.051181X0.051181*%
%ADD18R,0.059055X0.059055*%
%ADD19C,0.059055*%
%ADD20C,0.053150*%
%ADD21R,0.053150X0.053150*%
%ADD22R,0.061811X0.061811*%
%ADD23C,0.061811*%
%ADD24C,0.061024*%
%ADD25R,0.061024X0.061024*%
%ADD26R,0.053150X0.053150*%
%ADD27R,0.035433X0.035433*%
%ADD28R,0.062992X0.062992*%
%ADD29R,0.051181X0.051181*%
%ADD30C,0.049212*%
%ADD31R,0.049212X0.049212*%
%ADD32C,0.027559*%
%ADD33C,0.137795*%
%LNlamp_copper_signal_top-1*%
%LPD*%
G54D10*
X02066Y01033D02*
Y01456D01*
Y01033D02*
X02391Y00708D01*
X01914Y01609D02*
X02066Y01456D01*
X0185Y0155D02*
X01988Y01413D01*
X01929Y00708D02*
X01988Y00767D01*
Y01413*
X01545Y00777D02*
Y02568D01*
X01456Y02657D02*
X01545Y02568D01*
X01476Y00708D02*
X01545Y00777D01*
X01963Y01765D02*
X02174Y01555D01*
X0246*
X01963Y01865D02*
X02205Y01624D01*
X0246*
X01682Y01889D02*
Y02078D01*
X01732Y02128*
X02263Y02165D02*
X02319Y02221D01*
Y03425*
X014Y02457D02*
X01448D01*
X0103Y02828D02*
X014Y02457D01*
X01448D02*
X01456D01*
X0103Y02828D02*
Y02965D01*
X00569Y02457D02*
X014D01*
X01025Y02969D02*
X0103Y02965D01*
X01025Y02969D02*
X0103D01*
Y03245*
X0121Y03425*
X01433*
X00669Y02972D02*
Y03031D01*
X00493Y02972D02*
X00669D01*
Y03031D02*
X01181Y03543D01*
X00492Y02974D02*
X00493Y02972D01*
X01181Y03543D02*
X02501D01*
X01741Y01066D02*
Y01279D01*
Y01066D02*
X01742Y01066D01*
X01741Y01279D02*
X01741Y01279D01*
X01914Y01609D02*
Y01915D01*
X01963Y01965*
X01782Y01889D02*
X01788Y01895D01*
X01791Y01917D02*
Y02192D01*
X01963Y02365*
X01788Y01895D02*
Y01914D01*
X01791Y01917*
X0185Y01951D02*
X01963Y02065D01*
X0185Y0155D02*
Y01951D01*
X01692Y03484D02*
X02027D01*
X02263Y03248*
Y03065D02*
Y03248D01*
X02165Y03063D02*
Y03228D01*
X01968Y03425D02*
X02165Y03228D01*
Y03063D02*
X02263Y02965D01*
X01733Y03425D02*
X01968D01*
X02066Y02668D02*
Y03188D01*
X01963Y02565D02*
X02066Y02668D01*
X02501Y03543D02*
X02619Y03425D01*
X01633D02*
X01692Y03484D01*
X02381Y02183D02*
Y03387D01*
X0244Y02142D02*
Y03346D01*
X02519Y03425*
X02381Y03387D02*
X02419Y03425D01*
X02263Y02065D02*
X02381Y02183D01*
X02263Y01965D02*
X0244Y02142D01*
X02163Y02265D02*
X02263D01*
X01963Y02465D02*
X02163Y02265D01*
X02972Y01043D02*
X03138Y01209D01*
X02972Y01043D02*
D01*
X03138Y01209D02*
Y01289D01*
X02913Y00826D02*
X03021Y00718D01*
X02913Y00826D02*
Y01471D01*
X02519Y01865D02*
X02913Y01471D01*
X03021Y00718D02*
X03188D01*
X02519Y01043D02*
Y01765D01*
Y01043D02*
X02844Y00718D01*
X02834Y01732D02*
Y01888D01*
X03366Y02419*
X02755Y01909D02*
X03366Y02519D01*
X02755Y01732D02*
Y01909D01*
X01782Y02552D02*
X01963Y02371D01*
Y02365D02*
Y02371D01*
X01782Y02552D02*
Y02559D01*
X02646Y01279D02*
X02653Y01287D01*
Y0129*
X02203Y01279D02*
X02211Y01287D01*
Y0129*
X03363Y01788D02*
X03366Y01791D01*
X01741Y01279D02*
X01749Y01287D01*
X03351Y02393D02*
X03366Y02407D01*
X03351Y02387D02*
Y02393D01*
X03366Y02407D02*
Y02419D01*
X03464Y01181D02*
Y02821D01*
X03356Y01072D02*
X03464Y01181D01*
X03366Y02919D02*
X03464Y02821D01*
X02519Y02165D02*
X02974Y02619D01*
X03366*
X00413Y01494D02*
X00492Y01415D01*
X00413Y0183D02*
X00492Y01909D01*
X00413Y01494D02*
Y0183D01*
X01841Y01279D02*
Y01282D01*
X01299Y00587D02*
X01742D01*
X01187Y00698D02*
X01299Y00587D01*
X01682Y0237D02*
Y02559D01*
Y0237D02*
X01732Y0232D01*
X00492Y0238D02*
X00569Y02457D01*
X03238Y0119D02*
X03356Y01072D01*
X03238Y0119D02*
Y01289D01*
X03188Y01072D02*
Y01289D01*
X02696Y01221D02*
X02844Y01072D01*
X02696Y01221D02*
Y01279D01*
X02646D02*
X02646Y01278D01*
Y01077D02*
X02647Y01076D01*
X02646Y01077D02*
Y01278D01*
X02253Y01201D02*
Y01279D01*
Y01201D02*
X02391Y01062D01*
X02203Y01279D02*
X02203Y01278D01*
Y01077D02*
Y01278D01*
Y01077D02*
X02204Y01076D01*
X01791Y012D02*
X01929Y01062D01*
X01791Y012D02*
Y01279D01*
X0135Y01188D02*
Y01275D01*
Y01188D02*
X01476Y01062D01*
X01299Y01067D02*
Y01275D01*
X01299Y01066D02*
X01299Y01067D01*
Y01275D02*
X013Y01275D01*
X00492Y01909D02*
X00551Y01968D01*
Y02321*
X00492Y0238D02*
X00551Y02321D01*
X00492Y01073D02*
Y01415D01*
X02204Y00596D02*
X02647D01*
X01742Y00587D02*
X02187D01*
X02197Y00596*
X02204*
X01003Y00698D02*
X01187D01*
X00995D02*
X01003D01*
X00767Y00688D02*
X00986D01*
X00995Y00698*
X00767Y00688D02*
Y00798D01*
X00492Y01073D02*
X00767Y00798D01*
X00492Y00699D02*
Y00973D01*
X00772Y00605D02*
X00999D01*
X01003Y006*
X00767Y0061D02*
X00772Y00605D01*
X00748Y00599D02*
X00759Y0061D01*
X00492Y00599D02*
X00748D01*
X00759Y0061D02*
X00767D01*
G54D11*
X02647Y01076D03*
X01732Y02128D03*
X01299Y01066D03*
X01742D03*
X02204Y01076D03*
G54D12*
X02647Y00596D03*
X01732Y0232D03*
X01299Y00587D03*
X01742D03*
X02204Y00596D03*
G54D13*
X03238Y01289D03*
X03188D03*
X0135Y01275D03*
X014D03*
X01791Y01279D03*
X01841D03*
X02696D03*
X02746D03*
X02253D03*
X02303D03*
G54D14*
X03366Y02319D03*
Y02419D03*
Y02619D03*
Y02819D03*
Y02719D03*
Y02519D03*
Y01891D03*
Y01791D03*
Y01691D03*
X01733Y03425D03*
X01633D03*
X01533D03*
X02519Y01965D03*
Y02065D03*
Y02165D03*
Y02365D03*
Y02465D03*
Y02665D03*
Y02865D03*
Y02965D03*
Y02765D03*
Y02565D03*
Y02265D03*
Y01865D03*
Y01765D03*
X01456Y01957D03*
Y02057D03*
Y02157D03*
Y02357D03*
Y02457D03*
Y02657D03*
Y02857D03*
Y02957D03*
Y02757D03*
Y02557D03*
Y02257D03*
Y01857D03*
Y01757D03*
X02619Y03425D03*
X02519D03*
X02419D03*
G54D15*
X03366Y02919D03*
Y01991D03*
X02519Y03065D03*
X01456Y03057D03*
G54D16*
X01782Y01889D03*
Y02559D03*
X00767Y0061D03*
G54D17*
X01682Y01889D03*
Y02559D03*
G54D18*
X01963Y03065D03*
G54D19*
X01963Y02965D03*
Y02865D03*
Y02765D03*
Y02665D03*
Y02565D03*
Y02465D03*
Y02365D03*
Y02265D03*
Y02165D03*
Y02065D03*
Y01965D03*
Y01865D03*
Y01765D03*
X02263Y03065D03*
Y02965D03*
Y02865D03*
Y02765D03*
Y02665D03*
Y02565D03*
Y02465D03*
Y02365D03*
Y02265D03*
Y02165D03*
Y02065D03*
Y01965D03*
Y01865D03*
Y01765D03*
G54D20*
X01023Y02976D03*
X03188Y01072D03*
X03356D03*
X01476Y01062D03*
X01929D03*
X02844Y01072D03*
X02391Y01062D03*
G54D21*
X00669Y02976D03*
G54D22*
X00492Y02974D03*
Y00973D03*
Y00699D03*
G54D23*
X00492Y02874D03*
Y01073D03*
Y00599D03*
G54D24*
X00492Y0258D03*
Y0248D03*
Y02109D03*
Y02009D03*
Y01615D03*
Y01515D03*
G54D25*
X00492Y0238D03*
Y01909D03*
Y01415D03*
G54D26*
X03188Y00718D03*
X03356D03*
X01476Y00708D03*
X01929D03*
X02844Y00718D03*
X02391Y00708D03*
G54D27*
X013Y01275D03*
X03138Y01289D03*
X01741Y01279D03*
X02646D03*
X02203D03*
G54D28*
X01433Y03425D03*
X02319D03*
G54D29*
X00767Y00688D03*
G54D30*
X01003Y00698D03*
G54D31*
X01003Y006D03*
G54D32*
X0246Y01555D03*
Y01624D03*
X02066Y03188D03*
X02972Y01043D03*
X02834Y01732D03*
X02755D03*
G54D33*
X00196Y0374D03*
Y00196D03*
X0374D03*
Y0374D03*
M02*