%FSTAX23Y23*%
%MOIN*%
%SFA1B1*%

%IPPOS*%
%ADD11R,0.047244X0.047244*%
%ADD12C,0.047244*%
%ADD22R,0.061811X0.061811*%
%ADD23C,0.061811*%
%ADD40C,0.043433*%
%ADD41C,0.070992*%
%ADD42R,0.070992X0.070992*%
%ADD43C,0.059181*%
%ADD44R,0.059181X0.059181*%
%ADD45C,0.055244*%
%ADD46R,0.055244X0.055244*%
%ADD47R,0.067055X0.067055*%
%ADD48C,0.067055*%
%ADD49C,0.061149*%
%ADD50R,0.061149X0.061149*%
%ADD51C,0.069023*%
%ADD52R,0.069023X0.069023*%
%ADD53R,0.061149X0.061149*%
%ADD54R,0.043433X0.043433*%
%ADD55R,0.070992X0.070992*%
%ADD56R,0.059181X0.059181*%
%ADD57C,0.057212*%
%ADD58R,0.057212X0.057212*%
%ADD59C,0.035559*%
%ADD60C,0.145795*%
%LNlamp_soldermask_bot-1*%
%LPD*%
G54D11*
X02647Y01076D03*
X01299Y01066D03*
X01742D03*
X02204Y01076D03*
G54D12*
X02647Y00596D03*
X01299Y00587D03*
X01742D03*
X02204Y00596D03*
G54D22*
X00492Y02974D03*
Y00973D03*
Y00699D03*
G54D23*
X00492Y02874D03*
Y01073D03*
Y00599D03*
G54D40*
X03238Y01289D03*
X03188D03*
X0135Y01275D03*
X014D03*
X01791Y01279D03*
X01841D03*
X02696D03*
X02746D03*
X02253D03*
X02303D03*
G54D41*
X03366Y02319D03*
Y02419D03*
Y02619D03*
Y02819D03*
Y02719D03*
Y02519D03*
Y01891D03*
Y01791D03*
Y01691D03*
X01733Y03425D03*
X01633D03*
X01533D03*
X02519Y01965D03*
Y02065D03*
Y02165D03*
Y02365D03*
Y02465D03*
Y02665D03*
Y02865D03*
Y02965D03*
Y02765D03*
Y02565D03*
Y02265D03*
Y01865D03*
Y01765D03*
X01456Y01957D03*
Y02057D03*
Y02157D03*
Y02357D03*
Y02457D03*
Y02657D03*
Y02857D03*
Y02957D03*
Y02757D03*
Y02557D03*
Y02257D03*
Y01857D03*
Y01757D03*
X02619Y03425D03*
X02519D03*
X02419D03*
G54D42*
X03366Y02919D03*
Y01991D03*
X02519Y03065D03*
X01456Y03057D03*
G54D43*
X01782Y01889D03*
Y02559D03*
X00767Y0061D03*
G54D44*
X01682Y01889D03*
Y02559D03*
G54D45*
X01732Y0232D03*
G54D46*
X01732Y02128D03*
G54D47*
X01963Y03065D03*
G54D48*
X01963Y02965D03*
Y02865D03*
Y02765D03*
Y02665D03*
Y02565D03*
Y02465D03*
Y02365D03*
Y02265D03*
Y02165D03*
Y02065D03*
Y01965D03*
Y01865D03*
Y01765D03*
X02263Y03065D03*
Y02965D03*
Y02865D03*
Y02765D03*
Y02665D03*
Y02565D03*
Y02465D03*
Y02365D03*
Y02265D03*
Y02165D03*
Y02065D03*
Y01965D03*
Y01865D03*
Y01765D03*
G54D49*
X01023Y02976D03*
X03188Y01072D03*
X03356D03*
X01476Y01062D03*
X01929D03*
X02844Y01072D03*
X02391Y01062D03*
G54D50*
X00669Y02976D03*
G54D51*
X00492Y0258D03*
Y0248D03*
Y02109D03*
Y02009D03*
Y01615D03*
Y01515D03*
G54D52*
X00492Y0238D03*
Y01909D03*
Y01415D03*
G54D53*
X03188Y00718D03*
X03356D03*
X01476Y00708D03*
X01929D03*
X02844Y00718D03*
X02391Y00708D03*
G54D54*
X013Y01275D03*
X03138Y01289D03*
X01741Y01279D03*
X02646D03*
X02203D03*
G54D55*
X01433Y03425D03*
X02319D03*
G54D56*
X00767Y00688D03*
G54D57*
X01003Y00698D03*
G54D58*
X01003Y006D03*
G54D59*
X0246Y01555D03*
Y01624D03*
X02066Y03188D03*
X02972Y01043D03*
X02834Y01732D03*
X02755D03*
G54D60*
X00196Y0374D03*
Y00196D03*
X0374D03*
Y0374D03*
M02*